<svg width="20" height="20" viewBox="0 0 20 20" fill="none" xmlns="http://www.w3.org/2000/svg">
<path d="M19.4755 14.6441L16.6786 11.91C15.6797 10.9336 13.9816 11.3242 13.582 12.5936C13.2823 13.4724 12.2834 13.9607 11.3844 13.7653C9.38661 13.2771 6.68957 10.7383 6.19012 8.68767C5.89045 7.8088 6.48979 6.83233 7.3888 6.53943C8.68738 6.14884 9.08694 4.48884 8.08804 3.51236L5.2911 0.778242C4.49198 0.0947119 3.29329 0.0947119 2.59406 0.778242L0.696143 2.63354C-1.20177 4.58648 0.895924 9.76179 5.59077 14.3512C10.2856 18.9406 15.5798 21.0889 17.5776 19.1359L19.4755 17.2806C20.1748 16.4994 20.1748 15.3277 19.4755 14.6441Z" fill="white"/>
</svg>
